<svg xmlns="http://www.w3.org/2000/svg" width="24" height="24" fill="none" viewBox="0 0 24 24"><path fill="#fff" fill-rule="evenodd" d="M12 2C6.48602 2 2 6.48602 2 12C2 17.5136 6.48602 22 12 22C17.5136 22 22 17.5136 22 12C22 6.48602 17.5144 2 12 2ZM14.4869 12.3521H12.86C12.86 14.9513 12.86 18.1508 12.86 18.1508H10.4492C10.4492 18.1508 10.4492 14.9824 10.4492 12.3521H9.30323V10.3026H10.4492V8.97696C10.4492 8.02755 10.9003 6.54403 12.8821 6.54403L14.6686 6.55087V8.54032C14.6686 8.54032 13.583 8.54032 13.3719 8.54032C13.1609 8.54032 12.8608 8.64585 12.8608 9.09861V10.303H14.6976L14.4869 12.3521Z" clip-rule="evenodd"/></svg>