<svg xmlns="http://www.w3.org/2000/svg" width="24" height="24" fill="none" viewBox="0 0 24 24"><path fill="#fff" d="M12 14C13.1046 14 14 13.1046 14 12C14 10.8954 13.1046 10 12 10C10.8954 10 10 10.8954 10 12C10 13.1046 10.8954 14 12 14Z"/><path fill="#fff" fill-rule="evenodd" d="M16.7545 8.40301C16.6567 8.13819 16.5008 7.8985 16.2983 7.70175C16.1015 7.49917 15.862 7.34326 15.597 7.24553C15.3821 7.16207 15.0593 7.06272 14.4646 7.03565C13.8214 7.00632 13.6285 7 12.0001 7C10.3715 7 10.1786 7.00616 9.53553 7.03549C8.94091 7.06272 8.61791 7.16207 8.40317 7.24553C8.13819 7.34326 7.8985 7.49917 7.70191 7.70175C7.49933 7.8985 7.34342 8.13803 7.24553 8.40301C7.16207 8.61791 7.06272 8.94091 7.03565 9.53553C7.00632 10.1786 7 10.3715 7 12.0001C7 13.6285 7.00632 13.8214 7.03565 14.4646C7.06272 15.0593 7.16207 15.3821 7.24553 15.597C7.34342 15.862 7.49917 16.1015 7.70175 16.2983C7.8985 16.5008 8.13803 16.6567 8.40301 16.7545C8.61791 16.8381 8.94091 16.9374 9.53553 16.9645C10.1786 16.9938 10.3713 17 11.9999 17C13.6287 17 13.8215 16.9938 14.4645 16.9645C15.0591 16.9374 15.3821 16.8381 15.597 16.7545C16.1289 16.5493 16.5493 16.1289 16.7545 15.597C16.8379 15.3821 16.9373 15.0593 16.9645 14.4646C16.9938 13.8214 17 13.6285 17 12.0001C17 10.3715 16.9938 10.1786 16.9645 9.53553C16.9374 8.94091 16.8381 8.61791 16.7545 8.40301ZM12.0001 15C10.3432 15 9 13.657 9 12C9 10.343 10.3432 9 12.0001 9C13.6568 9 15 10.343 15 12C15 13.657 13.6568 15 12.0001 15ZM15 8.5C15 8.77613 15.2239 9 15.5 9C15.7761 9 15.9999 8.77613 16 8.5C16 8.22387 15.7761 8 15.5 8C15.2239 8 15 8.22387 15 8.5Z" clip-rule="evenodd"/><path fill="#fff" fill-rule="evenodd" d="M2 12C2 6.48602 6.48602 2 12 2C17.5144 2 22 6.48602 22 12C22 17.5136 17.5136 22 12 22C6.48602 22 2 17.5136 2 12ZM17.6849 15.9302C17.8332 15.5485 17.9348 15.1124 17.9638 14.4737C17.9931 13.8339 18 13.6295 18 12C18 10.3705 17.9931 10.1661 17.964 9.52631C17.9348 8.8876 17.8334 8.45153 17.6849 8.06983C17.5344 7.66948 17.2982 7.30692 16.993 7.00717C16.6932 6.70185 16.3305 6.46556 15.9302 6.31489C15.5485 6.16677 15.1124 6.06537 14.4737 6.03635C13.8339 6.00702 13.6295 6 12 6C10.3705 6 10.1661 6.00702 9.52631 6.03619C8.8876 6.06537 8.45153 6.16677 8.06983 6.31505C7.66948 6.46572 7.30676 6.70185 7.00717 7.00717C6.70185 7.30676 6.46556 7.66948 6.31489 8.06983C6.16661 8.45153 6.06521 8.8876 6.03619 9.52631C6.00686 10.1661 6 10.3705 6 12C6 13.6295 6.00686 13.8339 6.03635 14.4739C6.06537 15.1124 6.16693 15.5486 6.31521 15.9302C6.46588 16.3305 6.70201 16.6932 7.00717 16.9928C7.30692 17.2982 7.66948 17.5343 8.06999 17.6849C8.45153 17.8332 8.88775 17.9346 9.52631 17.9638C10.1663 17.993 10.3705 18 12.0002 18C13.6296 18 13.834 17.993 14.4739 17.9638C15.1124 17.9346 15.5486 17.8332 15.9302 17.6849C16.7361 17.3732 17.3732 16.7361 17.6849 15.9302Z" clip-rule="evenodd"/></svg>