<svg xmlns="http://www.w3.org/2000/svg" width="24" height="24" fill="none" viewBox="0 0 24 24"><path fill="#fff" d="M12.3702 11.3797C12.5841 11.0494 12.9663 10.5789 13.8223 10.5789 14.8829 10.5789 15.6784 11.2721 15.6792 12.7609V15.5423H14.0668V12.9474C14.0668 12.2949 13.8336 11.8502 13.2503 11.8502 12.8048 11.8502 12.5398 12.1502 12.4229 12.4403 12.3794 12.5438 12.3702 12.6892 12.3702 12.8338V15.5435H10.7582C10.7582 15.5435 10.7791 11.1477 10.7582 10.6933H12.3702V11.3797zM9.86474 15.5435V10.6933H8.25272V15.5435H9.86474zM8.15766 9.19286C8.15766 8.71675 8.51857 8.35503 9.0696 8.35503 9.62145 8.35503 9.9602 8.71715 9.97108 9.19286 9.97108 9.6581 9.62104 10.0307 9.05873 10.0307H9.04826C8.50769 10.0307 8.15766 9.6581 8.15766 9.19286z"/><path fill="#fff" fill-rule="evenodd" d="M2 12C2 6.48602 6.48602 2 12 2C17.5144 2 22 6.48602 22 12C22 17.5136 17.5136 22 12 22C6.48602 22 2 17.5136 2 12ZM16.5138 17.2924C16.9501 17.2924 17.3029 16.9484 17.3029 16.5231V7.32144C17.3029 6.89688 16.9496 6.55208 16.5138 6.55208H7.41811C6.98308 6.55208 6.62982 6.89648 6.62982 7.32144V16.5231C6.62982 16.9484 6.98308 17.2924 7.41811 17.2924H16.5138Z" clip-rule="evenodd"/></svg>