<svg xmlns="http://www.w3.org/2000/svg" width="24" height="24" fill="none" viewBox="0 0 24 24"><path fill="#fff" fill-rule="evenodd" d="M22.0079 12.0059C22.0079 17.5299 17.5299 22.0079 12.0059 22.0079C6.48196 22.0079 2.00391 17.5299 2.00391 12.0059C2.00391 6.48195 6.48196 2.00391 12.0059 2.00391C17.5299 2.00391 22.0079 6.48195 22.0079 12.0059ZM17.0621 6.47852L13.035 11.1596H13.0348L17.4146 17.5337H14.1934L11.244 13.2414L7.55144 17.5337H6.5971L10.8204 12.6249L6.5971 6.47852H9.81827L12.6111 10.5431L16.1078 6.47852H17.0621ZM11.3 12.067L11.7279 12.679V12.6792L14.6424 16.848H16.1082L12.5366 11.7392L12.1087 11.1272L9.36111 7.19693H7.8953L11.3 12.067Z" clip-rule="evenodd"/></svg>