<svg xmlns="http://www.w3.org/2000/svg" width="24" height="24" fill="none" viewBox="0 0 24 24"><path fill="#fff" d="M14 12L11 14V10L14 12Z"/><path fill="#fff" fill-rule="evenodd" d="M12 2C6.48602 2 2 6.48602 2 12C2 17.5136 6.48602 22 12 22C17.5136 22 22 17.5136 22 12C22 6.48602 17.5144 2 12 2ZM17.9999 12.0093C17.9999 12.0093 17.9999 13.8636 17.7529 14.7577C17.6145 15.2471 17.2092 15.633 16.6952 15.7646C15.7562 16 12 16 12 16C12 16 8.25374 16 7.30489 15.7553C6.7909 15.6236 6.38563 15.2376 6.24718 14.7482C6 13.8636 6 12 6 12C6 12 6 10.1459 6.24718 9.25181C6.38549 8.76242 6.80072 8.36705 7.30489 8.23535C8.24392 8 12 8 12 8C12 8 15.7562 8 16.6952 8.2447C17.2092 8.3764 17.6145 8.76242 17.7529 9.25181C18.0099 10.1459 17.9999 12.0093 17.9999 12.0093Z" clip-rule="evenodd"/></svg>